<svg xmlns="http://www.w3.org/2000/svg" width="1600" height="520" viewBox="0 0 1600 520" role="img" aria-label="Adaptive Secure Overlay banner">
  <defs>
    <linearGradient id="bg" x1="0" y1="0" x2="1" y2="1">
      <stop offset="0" stop-color="#07101c"/>
      <stop offset="0.58" stop-color="#0a1628"/>
      <stop offset="1" stop-color="#111827"/>
    </linearGradient>
    <linearGradient id="blue" x1="0" y1="0" x2="1" y2="0">
      <stop offset="0" stop-color="#56b6ff"/>
      <stop offset="1" stop-color="#2563eb"/>
    </linearGradient>
    <linearGradient id="cyan" x1="0" y1="0" x2="1" y2="0">
      <stop offset="0" stop-color="#27d3c3"/>
      <stop offset="1" stop-color="#14b8a6"/>
    </linearGradient>
    <linearGradient id="red" x1="0" y1="0" x2="1" y2="0">
      <stop offset="0" stop-color="#ff7b7b"/>
      <stop offset="1" stop-color="#ef4444"/>
    </linearGradient>
    <linearGradient id="violet" x1="0" y1="0" x2="1" y2="0">
      <stop offset="0" stop-color="#8b5cf6"/>
      <stop offset="1" stop-color="#6d28d9"/>
    </linearGradient>
    <pattern id="grid" width="28" height="28" patternUnits="userSpaceOnUse">
      <path d="M28 0H0V28" fill="none" stroke="#22314d" stroke-width="1" opacity="0.32"/>
    </pattern>
    <filter id="glow" x="-40%" y="-40%" width="180%" height="180%">
      <feGaussianBlur stdDeviation="6" result="blur"/>
      <feMerge>
        <feMergeNode in="blur"/>
        <feMergeNode in="SourceGraphic"/>
      </feMerge>
    </filter>
  </defs>

  <rect width="1600" height="520" fill="url(#bg)"/>
  <rect width="1600" height="520" fill="url(#grid)" opacity="0.46"/>

  <g opacity="0.2" stroke="#4f8dff" stroke-width="2" fill="none">
    <path d="M78 432C250 365 420 468 590 409C786 342 955 338 1128 387C1275 427 1375 420 1522 344"/>
    <path d="M120 120C250 154 360 70 542 118C733 168 842 94 1035 145C1235 198 1338 132 1510 176"/>
  </g>

  <g transform="translate(74 58)">
    <rect x="0" y="0" width="96" height="96" rx="24" fill="#0d2036" stroke="#2f80ed" stroke-width="3"/>
    <path d="M48 18l28 16v32L48 82L20 66V34z" fill="none" stroke="#9bd2ff" stroke-width="5" stroke-linejoin="round"/>
    <path d="M33 50h30M48 34v32" stroke="#2f80ed" stroke-width="5" stroke-linecap="round"/>
  </g>

  <text x="195" y="102" font-family="Segoe UI, Inter, Arial, sans-serif" font-size="54" font-weight="800" fill="#f8fafc">
    Adaptive <tspan fill="#56b6ff">Secure</tspan> Overlay
  </text>
  <text x="198" y="141" font-family="Segoe UI, Inter, Arial, sans-serif" font-size="21" fill="#bfd0e5" letter-spacing="2">
    MULTI-HOP CONTROL-PLANE. PROTOCOL-NATIVE DATA-PLANE.
  </text>
  <text x="198" y="177" font-family="Segoe UI, Inter, Arial, sans-serif" font-size="18" fill="#8ea5c3">
    Research platform for adaptive secure channel establishment across Linux, OpenWRT, RouterOS, Windows and future protocol tracks.
  </text>

  <g transform="translate(70 228)">
    <rect width="420" height="148" rx="14" fill="#101c2e" stroke="#29405f"/>
    <circle cx="66" cy="58" r="34" fill="#102944" stroke="#56b6ff" stroke-width="3"/>
    <text x="66" y="72" font-family="Segoe UI, Arial" font-size="40" text-anchor="middle" fill="#f8fafc">L</text>
    <text x="120" y="45" font-family="Segoe UI, Arial" font-size="28" font-weight="700" fill="#56b6ff">Linux</text>
    <text x="120" y="73" font-family="Segoe UI, Arial" font-size="16" fill="#d4e1f1">Endpoint and intermediate node</text>
    <text x="120" y="104" font-family="Segoe UI, Arial" font-size="15" fill="#8fb2df">strongSwan, nftables, XFRM bypass</text>
    <text x="120" y="128" font-family="Segoe UI, Arial" font-size="15" fill="#8fb2df">systemd service and CLI scripts</text>
  </g>

  <g transform="translate(520 228)">
    <rect width="420" height="148" rx="14" fill="#0d2228" stroke="#245765"/>
    <circle cx="66" cy="58" r="34" fill="#0d3137" stroke="#27d3c3" stroke-width="3"/>
    <text x="66" y="72" font-family="Segoe UI, Arial" font-size="40" text-anchor="middle" fill="#f8fafc">O</text>
    <text x="120" y="45" font-family="Segoe UI, Arial" font-size="28" font-weight="700" fill="#27d3c3">OpenWRT</text>
    <text x="120" y="73" font-family="Segoe UI, Arial" font-size="16" fill="#d4eeeb">Router endpoint and relay profile</text>
    <text x="120" y="104" font-family="Segoe UI, Arial" font-size="15" fill="#8fded6">strongSwan, nftables, init.d</text>
    <text x="120" y="128" font-family="Segoe UI, Arial" font-size="15" fill="#8fded6">compact deployment for lab routers</text>
  </g>

  <g transform="translate(970 228)">
    <rect width="420" height="148" rx="14" fill="#2a1117" stroke="#62313b"/>
    <circle cx="66" cy="58" r="34" fill="#37151c" stroke="#ff7b7b" stroke-width="3"/>
    <text x="66" y="72" font-family="Segoe UI, Arial" font-size="40" text-anchor="middle" fill="#f8fafc">R</text>
    <text x="120" y="45" font-family="Segoe UI, Arial" font-size="28" font-weight="700" fill="#ff7b7b">RouterOS 7</text>
    <text x="120" y="73" font-family="Segoe UI, Arial" font-size="16" fill="#f3d3d8">Intermediate relay profile</text>
    <text x="120" y="104" font-family="Segoe UI, Arial" font-size="15" fill="#e8a3ad">container package, overlay daemon</text>
    <text x="120" y="128" font-family="Segoe UI, Arial" font-size="15" fill="#e8a3ad">relay only, no endpoint stack</text>
  </g>

  <g transform="translate(76 404)">
    <rect width="182" height="56" rx="12" fill="#132741" stroke="#2f80ed"/>
    <text x="22" y="35" font-family="Segoe UI, Arial" font-size="18" font-weight="700" fill="#93c5fd">Windows</text>
    <text x="122" y="35" font-family="Segoe UI, Arial" font-size="15" fill="#dbeafe">planned track</text>
  </g>

  <g transform="translate(280 404)">
    <rect width="196" height="56" rx="12" fill="#26184a" stroke="#8b5cf6"/>
    <text x="22" y="35" font-family="Segoe UI, Arial" font-size="18" font-weight="700" fill="#c4b5fd">WireGuard</text>
    <text x="136" y="35" font-family="Segoe UI, Arial" font-size="15" fill="#ede9fe">compatibility branch</text>
  </g>

  <g transform="translate(560 434)" font-family="Segoe UI, Arial" font-size="16">
    <circle cx="0" cy="0" r="24" fill="#102944" stroke="#56b6ff" stroke-width="3"/>
    <text x="0" y="6" text-anchor="middle" fill="#f8fafc">A</text>
    <circle cx="255" cy="0" r="18" fill="#122d28" stroke="#34d399" stroke-width="3"/>
    <circle cx="510" cy="0" r="18" fill="#122d28" stroke="#34d399" stroke-width="3"/>
    <circle cx="765" cy="0" r="18" fill="#122d28" stroke="#34d399" stroke-width="3"/>
    <circle cx="980" cy="0" r="24" fill="#102944" stroke="#56b6ff" stroke-width="3"/>
    <text x="980" y="6" text-anchor="middle" fill="#f8fafc">B</text>
    <path d="M24 0H236M274 0H490M528 0H744M782 0H956" stroke="#34d399" stroke-width="4" stroke-dasharray="14 10" fill="none" filter="url(#glow)"/>
    <path d="M20 26C180 78 785 78 958 26" stroke="url(#blue)" stroke-width="4" stroke-dasharray="16 10" fill="none"/>
    <text x="232" y="-24" fill="#34d399" font-weight="700">Control-plane over selected overlay nodes</text>
    <text x="216" y="76" fill="#56b6ff" font-weight="700">Transport-specific protected data-plane after setup</text>
  </g>
</svg>
